<svg id="svg" xmlns="http://www.w3.org/2000/svg" xmlns:xlink="http://www.w3.org/1999/xlink" width="400" height="333.33333333333337" viewBox="0, 0, 400,333.33333333333337"><g id="svgg"><path id="path0" d="M210.104 0.125 C 185.855 2.455,165.693 13.255,151.027 31.771 C 133.941 53.342,128.707 83.201,137.406 109.479 C 147.859 141.056,175.857 163.309,209.063 166.434 C 210.121 166.534,180.648 166.607,141.354 166.603 C 103.083 166.600,72.146 166.563,72.604 166.522 C 123.323 161.965,150.447 104.338,121.712 62.188 C 105.132 37.867,73.780 27.307,45.729 36.595 C 13.575 47.241,-5.420 80.011,1.249 113.333 C 7.008 142.110,31.357 163.883,60.729 166.522 C 61.188 166.563,50.913 166.612,37.898 166.632 C 14.941 166.666,14.184 166.679,12.585 167.085 C 6.581 168.611,1.919 173.271,0.415 179.252 C -0.238 181.847,-0.238 318.153,0.415 320.748 C 1.908 326.682,6.651 331.426,12.585 332.919 C 15.187 333.573,284.813 333.573,287.415 332.919 C 293.334 331.430,298.107 326.657,299.587 320.748 C 299.992 319.132,300.000 318.273,300.000 276.217 L 300.000 233.333 315.677 233.337 C 338.272 233.343,343.772 233.627,349.896 235.099 C 361.010 237.771,366.093 242.508,366.657 250.718 C 367.976 269.923,394.929 272.676,399.587 254.081 C 400.239 251.480,400.233 181.818,399.581 179.252 C 394.850 160.636,367.978 163.381,366.657 182.615 C 366.145 190.069,362.101 194.441,353.021 197.357 C 345.959 199.626,340.877 199.989,316.094 199.996 L 300.000 200.000 300.000 190.450 C 300.000 181.569,299.971 180.784,299.581 179.252 C 298.055 173.245,293.421 168.612,287.415 167.085 C 285.802 166.676,285.086 166.666,254.081 166.639 C 235.238 166.622,223.156 166.539,224.271 166.434 C 273.788 161.774,308.164 115.582,298.439 66.771 C 291.434 31.614,263.518 5.727,226.979 0.505 C 224.802 0.193,212.316 -0.087,210.104 0.125 M225.029 34.132 C 255.878 39.916,273.953 70.815,263.621 100.104 C 255.205 123.962,229.319 137.891,204.787 131.762 C 173.706 123.997,157.776 89.439,172.141 60.938 C 179.813 45.714,193.595 36.180,211.563 33.667 C 213.431 33.406,222.900 33.733,225.029 34.132 M71.667 67.180 C 95.630 70.849,107.650 98.170,94.218 118.438 C 80.036 139.837,47.739 137.419,36.676 114.130 C 25.350 90.287,45.551 63.182,71.667 67.180 " stroke="none" fill="#000000" fill-rule="evenodd"></path></g></svg>